<svg width="37" height="36" viewBox="0 0 37 36" fill="none" xmlns="http://www.w3.org/2000/svg">
<path d="M31.677 17.25C31.6822 19.2298 31.2196 21.1829 30.327 22.95C29.2687 25.0677 27.6416 26.8488 25.6282 28.094C23.6147 29.3391 21.2944 29.9991 18.927 30C16.9472 30.0052 14.9942 29.5426 13.227 28.65L4.677 31.5L7.527 22.95C6.6344 21.1829 6.17184 19.2298 6.177 17.25C6.17792 14.8827 6.83792 12.5623 8.08308 10.5489C9.32824 8.53542 11.1094 6.90839 13.227 5.85004C14.9942 4.95744 16.9472 4.49488 18.927 4.50004H19.677C22.8035 4.67253 25.7566 5.99218 27.9707 8.20633C30.1849 10.4205 31.5045 13.3735 31.677 16.5V17.25Z" stroke="#CFE5FF" stroke-width="3" stroke-linecap="round" stroke-linejoin="round"/>
</svg>
