<svg width="42" height="52" viewBox="0 0 42 52" fill="none" xmlns="http://www.w3.org/2000/svg">
<path d="M40.6759 40.9163C40.8595 41.1459 41.0202 41.4443 41.158 41.8116C41.2957 42.133 41.3646 42.4315 41.3646 42.707V51.8265H31.6537V46.3572C31.6537 46.0817 31.5848 45.7832 31.4471 45.4618C31.3553 45.0945 31.2175 44.7961 31.0339 44.5665L21.8051 34.098C21.5755 33.8684 21.323 33.7537 21.0475 33.7537C20.8179 33.7537 20.6113 33.8684 20.4276 34.098L11.1988 44.5665C11.0152 44.7961 10.8545 45.0945 10.7167 45.4618C10.579 45.7832 10.5101 46.0817 10.5101 46.3572V51.8265H0.868103V42.707C0.868103 42.4315 0.914017 42.133 1.00585 41.8116C1.14359 41.4443 1.32725 41.1459 1.55682 40.9163L14.0226 26.7976C14.4358 26.2466 14.4358 25.7186 14.0226 25.2136L1.55682 11.0949C1.32725 10.8653 1.14359 10.5898 1.00585 10.2684C0.914017 9.90112 0.868103 9.57972 0.868103 9.30423V0.172852H10.5101V5.65404C10.5101 5.92952 10.579 6.25092 10.7167 6.61824C10.8545 6.93964 11.0152 7.21513 11.1988 7.4447L20.4276 17.9132C20.6113 18.1428 20.8179 18.2575 21.0475 18.2575C21.323 18.2575 21.5755 18.1428 21.8051 17.9132L31.0339 7.4447C31.2175 7.21513 31.3553 6.93964 31.4471 6.61824C31.5848 6.25092 31.6537 5.92952 31.6537 5.65404V0.172852H41.3646V9.30423C41.3646 9.57972 41.2957 9.90112 41.158 10.2684C41.0202 10.5898 40.8595 10.8653 40.6759 11.0949L28.2101 25.2136C27.7969 25.7186 27.7969 26.2466 28.2101 26.7976L40.6759 40.9163Z" fill="white"/>
</svg>
