<svg width="30" height="36" viewBox="0 0 30 36" fill="none" xmlns="http://www.w3.org/2000/svg">
<path d="M28.7128 28.396C28.8408 28.556 28.9528 28.764 29.0488 29.02C29.1448 29.244 29.1927 29.452 29.1927 29.644V35.5H22.4248V32.188C22.4248 31.996 22.3768 31.788 22.2808 31.564C22.2168 31.308 22.1208 31.1 21.9928 30.94L15.5608 23.644C15.4008 23.484 15.2248 23.404 15.0328 23.404C14.8728 23.404 14.7288 23.484 14.6008 23.644L8.16875 30.94C8.04075 31.1 7.92875 31.308 7.83275 31.564C7.73675 31.788 7.68875 31.996 7.68875 32.188V35.5H0.96875V29.644C0.96875 29.452 1.00075 29.244 1.06475 29.02C1.16075 28.764 1.28875 28.556 1.44875 28.396L10.1368 18.556C10.4248 18.172 10.4248 17.804 10.1368 17.452L1.44875 7.612C1.28875 7.452 1.16075 7.26 1.06475 7.036C1.00075 6.78 0.96875 6.556 0.96875 6.364V0.412H7.68875V3.82C7.68875 4.012 7.73675 4.236 7.83275 4.492C7.92875 4.716 8.04075 4.908 8.16875 5.068L14.6008 12.364C14.7288 12.524 14.8728 12.604 15.0328 12.604C15.2248 12.604 15.4008 12.524 15.5608 12.364L21.9928 5.068C22.1208 4.908 22.2168 4.716 22.2808 4.492C22.3768 4.236 22.4248 4.012 22.4248 3.82V0.412H29.1927V6.364C29.1927 6.556 29.1448 6.78 29.0488 7.036C28.9528 7.26 28.8408 7.452 28.7128 7.612L20.0248 17.452C19.7368 17.804 19.7368 18.172 20.0248 18.556L28.7128 28.396Z" fill="white"/>
</svg>
